# xmcd
#
# Track frame offsets: 
#        150
#        10737
#        25644
#        39720
#        51189
#        62901
#        75708
#        88767
#        101908
#        111632
#
# Disc length: 1622 seconds
#
# Revision: 0
# Processed by: cddbd v1.5.2PL0 Copyright (c) Steve Scherf et al.
# Submitted via: ExactAudioCopy v0.95a5
#
DISCID=8206540a
DTITLE=Don Gibson - Country Music Legends- Don Gibson [CDTwo)
DYEAR=2006
DGENRE=Country
TTITLE0=Country Green
TTITLE1=Woman (Sensuous Woman)
TTITLE2=Touch The Morning
TTITLE3=One Day At A Time
TTITLE4=Is This The Best I'm Going To Feel
TTITLE5=Snap Your Fingers
TTITLE6=If You Ever Get To Houston
TTITLE7=Starting All Over Again
TTITLE8=The Fool
TTITLE9=Sea Of Heartbreak
EXTD=
EXTT0=
EXTT1=
EXTT2=
EXTT3=
EXTT4=
EXTT5=
EXTT6=
EXTT7=
EXTT8=
EXTT9=
PLAYORDER=
